# xmcd
#
# Track frame offsets:
#	150
#	15296
#	29580
#	48749
#	64353
#	81575
#	95054
#	109196
#	124151
#	137546
#	155886
#	182055
#	197791
#	221912
#	237523
#	268223
#
# Disc length: 3848 seconds
#
# Revision: 1
# Processed by: cddbd v1.5.2PL0 Copyright (c) Steve Scherf et al.
# Submitted via: audiograbber 1.83.01
#
DISCID=fd0f0610
DTITLE=Mayday - Queen of Hearts and Diamond Jack 
DYEAR=2005
DGENRE=pop
TTITLE0=Mayday - 1. One of a kind
TTITLE1=Mayday - 2. Alone
TTITLE2=Mayday - 3. Help me trough the night
TTITLE3=Mayday - 4. Talkin Blues
TTITLE4=Mayday - 5. Enigma
TTITLE5=Mayday - 6. Final hour
TTITLE6=Mayday - 7. Nothing will be everything
TTITLE7=Mayday - 8. I am who i am
TTITLE8=Mayday - 9. Please
TTITLE9=Mayday - 10. Mine
TTITLE10=Mayday - 11. How could you
TTITLE11=Mayday - 12. When you walk in the room
TTITLE12=Mayday - 13. All i really want
TTITLE13=Mayday - 14. Last issue
TTITLE14=Mayday - 15. Goodbye
TTITLE15=Mayday - 16. Where the heart is
EXTD=
EXTT0=
EXTT1=
EXTT2=
EXTT3=
EXTT4=
EXTT5=
EXTT6=
EXTT7=
EXTT8=
EXTT9=
EXTT10=
EXTT11=
EXTT12=
EXTT13=
EXTT14=
EXTT15=
PLAYORDER=
